<?xml version="1.0" encoding="UTF-8"?>
<svg xmlns="http://www.w3.org/2000/svg" xmlns:xlink="http://www.w3.org/1999/xlink" width="180px" height="60px" viewBox="0 0 180 60" version="1.1">
  <title>Group 86 Copy 3</title>
  <g id="Symbols" stroke="none" stroke-width="1" fill="none" fill-rule="evenodd">
    <g id="Nav/Logo" transform="translate(0.000000, -10.000000)">
      <g id="Group-86-Copy-2" transform="translate(0.000000, 10.000000)">
        <polygon id="Fill-1" fill="#8FB6D9" points="60.0190159 59.9659147 120.00845 59.9659147 120.00845 4.70117739e-05 60.0190159 4.70117739e-05"></polygon>
        <polygon id="Fill-2" fill="#44772C" points="120.00845 59.9659147 180 59.9659147 180 4.70117739e-05 120.00845 4.70117739e-05"></polygon>
        <g id="Group-85">
          <path d="M66.7774978,56.9389676 L66.3648074,56.9389676 L66.1858573,56.2770418 C65.8510019,56.7673746 65.2901662,56.9775173 64.7062856,56.9775173 C63.9902501,56.9775173 63.4684495,56.720833 63.0402391,56.1526957 C62.6353086,55.6000723 62.4796385,54.9621225 62.4796385,54.285153 C62.4796385,52.8839671 63.2116643,51.4832513 64.7921158,51.4832513 C65.8119668,51.4832513 66.4736824,52.0586754 66.7229427,53.0160702 L66.0922671,53.1719142 C65.9598769,52.5027016 65.4460715,52.0436316 64.7453208,52.0436316 C63.5385246,52.0436316 63.2036692,53.2729895 63.2036692,54.2536551 C63.2036692,54.7129601 63.2894994,55.2578266 63.5072495,55.6701199 C63.7487498,56.1214329 64.2237553,56.4328859 64.7530807,56.4328859 C65.5784616,56.4328859 66.0922671,55.8727406 66.0922671,55.0634329 L66.0922671,54.7674938 L64.7608407,54.7674938 L64.7608407,54.2068784 L66.7774978,54.2068784 L66.7774978,56.9389676 Z" id="Fill-3" fill="#1A1919"></path>
          <path d="M66.7774978,56.9389676 L66.3648074,56.9389676 L66.1858573,56.2770418 C65.8510019,56.7673746 65.2901662,56.9775173 64.7062856,56.9775173 C63.9902501,56.9775173 63.4684495,56.720833 63.0402391,56.1526957 C62.6353086,55.6000723 62.4796385,54.9621225 62.4796385,54.285153 C62.4796385,52.8839671 63.2116643,51.4832513 64.7921158,51.4832513 C65.8119668,51.4832513 66.4736824,52.0586754 66.7229427,53.0160702 L66.0922671,53.1719142 C65.9598769,52.5027016 65.4460715,52.0436316 64.7453208,52.0436316 C63.5385246,52.0436316 63.2036692,53.2729895 63.2036692,54.2536551 C63.2036692,54.7129601 63.2894994,55.2578266 63.5072495,55.6701199 C63.7487498,56.1214329 64.2237553,56.4328859 64.7530807,56.4328859 C65.5784616,56.4328859 66.0922671,55.8727406 66.0922671,55.0634329 L66.0922671,54.7674938 L64.7608407,54.7674938 L64.7608407,54.2068784 L66.7774978,54.2068784 L66.7774978,56.9389676 Z" id="Stroke-5" stroke="#1A1919" stroke-width="0.5"></path>
          <polygon id="Fill-7" fill="#1A1919" points="73.9396168 56.8999478 70.4826584 56.8999478 70.4826584 51.5608207 73.8617818 51.5608207 73.8617818 52.136715 71.152134 52.136715 71.152134 53.8333699 73.300946 53.8333699 73.300946 54.3704794 71.152134 54.3704794 71.152134 56.3245237 73.9396168 56.3245237"></polygon>
          <polygon id="Stroke-9" stroke="#1A1919" stroke-width="0.5" points="73.9396168 56.8999478 70.4826584 56.8999478 70.4826584 51.5608207 73.8617818 51.5608207 73.8617818 52.136715 71.152134 52.136715 71.152134 53.8333699 73.300946 53.8333699 73.300946 54.3704794 71.152134 54.3704794 71.152134 56.3245237 73.9396168 56.3245237"></polygon>
          <polygon id="Fill-11" fill="#1A1919" points="82.8450766 56.8999478 82.1753659 56.8999478 82.1753659 52.2377903 82.1445611 52.2377903 80.4547642 56.8999478 80.0032738 56.8999478 78.274677 52.2377903 78.2436371 52.2377903 78.2436371 56.8999478 77.6828014 56.8999478 77.6828014 51.5608207 78.6796075 51.5608207 80.291099 55.8334858 81.8642608 51.5608207 82.8450766 51.5608207"></polygon>
          <polygon id="Stroke-13" stroke="#1A1919" stroke-width="0.5" points="82.8450766 56.8999478 82.1753659 56.8999478 82.1753659 52.2377903 82.1445611 52.2377903 80.4547642 56.8999478 80.0032738 56.8999478 78.274677 52.2377903 78.2436371 52.2377903 78.2436371 56.8999478 77.6828014 56.8999478 77.6828014 51.5608207 78.6796075 51.5608207 80.291099 55.8334858 81.8642608 51.5608207 82.8450766 51.5608207"></polygon>
          <polygon id="Fill-15" fill="#1A1919" points="89.8101624 56.8999478 86.353204 56.8999478 86.353204 51.5608207 89.7323273 51.5608207 89.7323273 52.136715 87.0229147 52.136715 87.0229147 53.8333699 89.1717268 53.8333699 89.1717268 54.3704794 87.0229147 54.3704794 87.0229147 56.3245237 89.8101624 56.3245237"></polygon>
          <polygon id="Stroke-17" stroke="#1A1919" stroke-width="0.5" points="89.8101624 56.8999478 86.353204 56.8999478 86.353204 51.5608207 89.7323273 51.5608207 89.7323273 52.136715 87.0229147 52.136715 87.0229147 53.8333699 89.1717268 53.8333699 89.1717268 54.3704794 87.0229147 54.3704794 87.0229147 56.3245237 89.8101624 56.3245237"></polygon>
          <polygon id="Fill-19" fill="#1A1919" points="97.1577452 56.8999478 93.7005516 56.8999478 93.7005516 51.5608207 97.0801453 51.5608207 97.0801453 52.136715 94.3702624 52.136715 94.3702624 53.8333699 96.5190744 53.8333699 96.5190744 54.3704794 94.3702624 54.3704794 94.3702624 56.3245237 97.1577452 56.3245237"></polygon>
          <polygon id="Stroke-21" stroke="#1A1919" stroke-width="0.5" points="97.1577452 56.8999478 93.7005516 56.8999478 93.7005516 51.5608207 97.0801453 51.5608207 97.0801453 52.136715 94.3702624 52.136715 94.3702624 53.8333699 96.5190744 53.8333699 96.5190744 54.3704794 94.3702624 54.3704794 94.3702624 56.3245237 97.1577452 56.3245237"></polygon>
          <polygon id="Fill-23" fill="#1A1919" points="104.272199 56.8999478 103.618243 56.8999478 100.901071 52.2455472 100.901071 56.8999478 100.34047 56.8999478 100.34047 51.5608207 101.181136 51.5608207 103.711598 55.9115253 103.711598 51.5608207 104.272199 51.5608207"></polygon>
          <polygon id="Stroke-25" stroke="#1A1919" stroke-width="0.5" points="104.272199 56.8999478 103.618243 56.8999478 100.901071 52.2455472 100.901071 56.8999478 100.34047 56.8999478 100.34047 51.5608207 101.181136 51.5608207 103.711598 55.9115253 103.711598 51.5608207 104.272199 51.5608207"></polygon>
          <polygon id="Fill-27" fill="#1A1919" points="109.753245 56.8999478 109.083535 56.8999478 109.083535 52.1442368 107.565398 52.1442368 107.565398 51.5608207 111.271382 51.5608207 111.271382 52.1442368 109.753245 52.1442368"></polygon>
          <polygon id="Stroke-29" stroke="#1A1919" stroke-width="0.5" points="109.753245 56.8999478 109.083535 56.8999478 109.083535 52.1442368 107.565398 52.1442368 107.565398 51.5608207 111.271382 51.5608207 111.271382 52.1442368 109.753245 52.1442368"></polygon>
          <polygon id="Fill-31" fill="#1A1919" points="117.789022 56.8999478 114.332063 56.8999478 114.332063 51.5608207 117.711422 51.5608207 117.711422 52.136715 115.001539 52.136715 115.001539 53.8333699 117.150351 53.8333699 117.150351 54.3704794 115.001539 54.3704794 115.001539 56.3245237 117.789022 56.3245237"></polygon>
          <polygon id="Stroke-33" stroke="#1A1919" stroke-width="0.5" points="117.789022 56.8999478 114.332063 56.8999478 114.332063 51.5608207 117.711422 51.5608207 117.711422 52.136715 115.001539 52.136715 115.001539 53.8333699 117.150351 53.8333699 117.150351 54.3704794 115.001539 54.3704794 115.001539 56.3245237 117.789022 56.3245237"></polygon>
          <polygon id="Fill-35" fill="#FFFFFE" points="127.823819 56.9768356 126.446068 56.9768356 125.706517 54.0346038 125.690762 54.0346038 124.997771 56.9768356 123.56523 56.9768356 122.140449 51.6379435 123.682335 51.6379435 124.421416 54.7198004 124.436936 54.7198004 125.161437 51.6379435 126.446068 51.6379435 127.232414 54.7198004 127.247698 54.7198004 127.987484 51.6379435 129.241311 51.6379435"></polygon>
          <polygon id="Fill-37" fill="#FFFFFE" points="135.519755 56.9768356 131.509721 56.9768356 131.509721 51.6379435 135.519755 51.6379435 135.519755 52.8673014 133.113922 52.8673014 133.113922 53.6455813 135.060269 53.6455813 135.060269 54.8368597 133.113922 54.8368597 133.113922 55.7004659 135.519755 55.7004659"></polygon>
          <path d="M139.521911,55.1558346 C139.661826,55.6308885 140.020667,55.8015413 140.495202,55.8015413 C140.705428,55.8015413 141.125878,55.7702784 141.125878,55.4745744 C141.125878,55.1478426 140.713423,55.0853169 140.471452,55.0392454 C139.467591,54.8446166 138.275845,54.5721834 138.275845,53.3033356 C138.275845,52.7819751 138.533336,52.2683714 138.961546,51.9646754 C139.397516,51.6612144 139.965877,51.5601391 140.495202,51.5601391 C141.421698,51.5601391 142.316919,51.9414045 142.643779,52.8673014 L141.289308,53.2802999 C141.133638,52.8832854 140.838053,52.7431903 140.425127,52.7431903 C140.207142,52.7431903 139.895802,52.8052459 139.895802,53.0856711 C139.895802,53.3658613 140.284977,53.4201599 140.486972,53.4667015 C140.993488,53.5680119 141.530808,53.6533383 141.998054,53.8949788 C142.519384,54.1749339 142.79216,54.6732587 142.79216,55.2571449 C142.79216,56.5410365 141.515288,57.0546401 140.410078,57.0546401 C139.288406,57.0546401 138.2916,56.5875781 138.00401,55.4280327 L139.521911,55.1558346 Z" id="Fill-39" fill="#FFFFFE"></path>
          <polygon id="Fill-41" fill="#FFFFFE" points="148.071188 56.9768356 146.514251 56.9768356 146.514251 52.9220701 145.39305 52.9220701 145.39305 51.6379435 149.169344 51.6379435 149.169344 52.9220701 148.071188 52.9220701"></polygon>
          <polygon id="Fill-43" fill="#FFFFFE" points="156.036936 56.9768356 152.291917 56.9768356 152.291917 51.6379435 153.943149 51.6379435 153.943149 55.6694382 156.036936 55.6694382"></polygon>
          <path d="M161.600638,55.926193 L160.175386,55.926193 L159.848761,56.9769061 L158.5171,56.9769061 L160.175386,51.6380141 L161.903983,51.6380141 L163.57779,56.9769061 L161.903983,56.9769061 L161.600638,55.926193 Z M161.320808,54.7586556 L160.884367,53.2098527 L160.448162,54.7586556 L161.320808,54.7586556 Z" id="Fill-45" fill="#FFFFFE"></path>
          <path d="M169.111698,56.9768356 L167.578277,54.478865 L167.102801,53.5137133 L167.087516,53.5289921 L167.102801,53.5915178 C167.180871,53.9337635 167.211911,54.1206353 167.211911,54.4863869 L167.211911,56.9768356 L165.88072,56.9768356 L165.88072,51.6379435 L167.430366,51.6379435 L169.221043,54.6191952 L169.236093,54.6032112 L169.119693,53.1244558 L169.119693,51.6379435 L170.450649,51.6379435 L170.450649,56.9768356 L169.111698,56.9768356 Z" id="Fill-47" fill="#FFFFFE"></path>
          <path d="M173.144871,51.6379671 L175.114027,51.6379671 C175.884618,51.6379671 176.500009,51.7390424 177.076365,52.2914307 C177.63673,52.8207833 177.89375,53.5522865 177.89375,54.3152876 C177.89375,55.0152929 177.644725,55.7467961 177.153964,56.2531129 C176.624639,56.8055012 175.962688,56.9768591 175.223373,56.9768591 L173.144871,56.9768591 L173.144871,51.6379671 Z M175.020672,55.7467961 C175.238658,55.7467961 175.378573,55.762545 175.581273,55.6539478 C175.729183,55.5681513 175.845583,55.4515621 175.931413,55.3039451 C176.118594,54.9922571 176.180438,54.6342624 176.180438,54.2762678 C176.180438,53.917803 176.079558,53.4512112 175.853578,53.1555071 C175.596793,52.8365322 175.347297,52.8520461 174.974348,52.8520461 L174.786697,52.8520461 L174.786697,55.7467961 L175.020672,55.7467961 Z" id="Fill-49" fill="#FFFFFE"></path>
          <path d="M18.2288774,9.77224333 C19.9943929,10.4781251 19.9196149,11.8440522 19.3613658,13.4299944 C18.8031167,15.0161716 17.6924974,17.4652499 17.4392395,18.5526323 C15.9406207,24.9847831 22.2650134,25.0578864 19.4147451,28.6702711 C17.6776829,30.8723026 10.9039162,29.540459 10.8869518,20.7553689 C10.8719356,12.9109844 15.9347419,8.85504363 18.2288774,9.77224333" id="Fill-51" fill="#93B8D7"></path>
          <path d="M19.4302651,18.8734406 C18.8308646,19.9114606 19.0267456,21.9080506 23.0165567,23.934023 C27.0063679,25.9599953 28.1536708,25.8377647 29.0131486,24.8956488 C30.1992515,23.5955382 28.5915224,20.2680449 26.9174807,19.1080294 C24.181496,17.2122796 20.6984358,16.6779908 19.4302651,18.8734406" id="Fill-53" fill="#93B8D7"></path>
          <path d="M29.5184416,31.983943 C29.2604807,32.9175968 29.6637651,34.8041792 34.4857765,35.6287658 C38.5016894,36.3153727 39.9810259,34.7816136 40.060507,33.7797927 C40.1463372,32.6999323 39.858277,31.7578163 38.2110425,31.2444478 C37.3198193,30.9668432 36.0213141,30.9755404 34.2214665,30.7954853 C32.9003868,30.6633822 30.2845644,29.2107184 29.5184416,31.983943" id="Fill-55" fill="#93B8D7"></path>
          <path d="M33.5102751,43.2628666 C31.6887935,40.8215452 29.6909486,38.7257604 27.6343158,40.0324526 C26.4291657,40.7982744 25.8422281,42.6171599 29.1620934,46.9638685 C32.4821938,51.3105771 35.4008911,52.0058812 35.4145298,52.5060865 C35.5194073,56.3497691 28.9450488,50.5337075 27.584934,54.0840366 C26.4284602,57.1021925 29.6323959,58.8790025 31.3656957,58.9377672 C33.0992307,58.9965319 33.7160324,59.1140613 34.5679854,59.1728261 C35.4201735,59.2315908 43.9340594,60.8871104 43.970116,56.2063832 C43.9994315,52.3880869 35.7594967,55.7938548 36.0078164,52.6525281 C36.077186,51.7743482 36.8174422,51.122765 36.9185572,49.8919968 C37.0655267,48.1003781 35.3319918,45.704188 33.5102751,43.2628666" id="Fill-57" fill="#93B8D7"></path>
          <path d="M31.2468268,2.29156539 C32.0710319,2.92246339 33.2540778,4.89766306 31.58615,7.03904934 C29.7649036,9.37717989 25.7118368,7.25318797 26.4617341,4.34409942 C27.2116314,1.43477582 30.1039917,1.41691135 31.2468268,2.29156539" id="Fill-59" fill="#93B8D7"></path>
          <path d="M13.6442277,30.911816 C15.8861596,31.2806233 14.4717249,35.1981144 17.1047134,35.4237709 C19.7377019,35.6494274 18.9478288,32.6792236 21.4679447,32.8670356 C23.9880606,33.0548477 24.100698,36.6644116 24.3264432,39.4844129 C24.5521884,42.3044141 24.853182,45.1241803 24.0256848,47.9065721 C23.1981876,50.6889639 24.7005689,56.0962581 20.4523265,56.2537475 C17.405707,56.3663407 18.6999794,51.5706697 16.7155381,51.4467937 C15.4673553,51.3689892 14.5707236,59.3287876 10.4468762,57.3065762 C6.45988686,55.3511215 11.7637232,46.4898723 14.9982285,46.4026654 C16.3900887,46.3652911 17.1047134,47.8689627 17.7064654,47.718525 C18.4942221,47.5217807 18.2877593,42.9736267 17.443096,42.3796329 C16.4274778,41.665289 13.8323487,43.1689606 11.0488634,41.0635383 C7.73134963,38.5540499 10.6728565,30.4231286 13.6442277,30.911816" id="Fill-61" fill="#93B8D7"></path>
          <path d="M18.2035046,13.1304353 C18.7633997,13.5034738 15.968392,18.7048564 15.8703339,21.3401013 C15.6655172,26.8397737 18.9501098,26.377883 17.5502544,27.8707419 C16.6856033,28.7924077 12.7964369,26.0831192 13.0238281,21.7197214 C13.2512194,17.3563237 16.7483887,12.1608175 18.2035046,13.1304353" id="Fill-63" fill="#74B943"></path>
          <path d="M23.3593837,21.2568435 C23.0901356,21.917829 23.8901201,23.1088723 25.3022033,23.8159294 C26.7142865,24.5229865 27.6318467,24.8471326 28.0711092,24.39723 C28.5106069,23.9475624 28.521659,22.8004751 26.9198087,21.5118824 C25.3177233,20.2232897 23.6305131,20.5913918 23.3593837,21.2568435" id="Fill-65" fill="#74B943"></path>
          <path d="M31.8361863,5.5291252 C31.8361863,5.95058575 31.4815783,6.29236134 31.0439618,6.29236134 C30.6065805,6.29236134 30.2519724,5.95058575 30.2519724,5.5291252 C30.2519724,5.10789971 30.6065805,4.76612411 31.0439618,4.76612411 C31.4815783,4.76612411 31.8361863,5.10789971 31.8361863,5.5291252" id="Fill-67" fill="#74B943"></path>
          <path d="M33.4203532,13.4023514 C33.1475778,14.3569255 34.194236,15.8956208 35.836062,16.3852485 C37.4778879,16.874641 38.432602,16.3970014 39.527231,17.0880745 C40.6218601,17.7791476 40.5640129,18.7868449 40.8809967,18.7581677 C41.1979806,18.7294906 41.448887,17.8637687 42.0908499,17.433611 C43.0683736,16.778502 50.0700019,17.4912004 50.185226,15.1300341 C50.2973932,12.8285727 47.3396608,12.5088927 46.2650196,12.7843817 C45.2402305,13.0469424 43.260257,14.315085 41.169057,14.0934245 C39.2678592,13.891744 37.8284984,12.1779298 36.3348177,12.0634561 C34.6318524,11.9329985 33.6508014,12.5960995 33.4203532,13.4023514" id="Fill-69" fill="#74B943"></path>
          <path d="M33.0923408,32.0511933 C32.9028089,32.5826614 35.4711307,34.1770657 36.3853988,34.2457029 C37.2996668,34.3143401 38.7973451,33.7525494 38.8660093,33.1357549 C38.9344383,32.5189604 37.6775549,31.9933688 36.2835783,31.9933688 C34.8896017,31.9933688 33.2804618,31.5234861 33.0923408,32.0511933" id="Fill-71" fill="#74B943"></path>
          <path d="M28.6907092,42.8166074 C28.0292288,43.2072752 28.3937132,44.8273009 30.2448238,47.4543188 C32.0959344,50.0811017 32.5989229,50.9964209 33.421482,50.6537051 C34.2442762,50.3109892 33.9928995,48.1167147 31.8445577,45.306821 C29.6962159,42.4969273 29.1934626,42.5194929 28.6907092,42.8166074" id="Fill-73" fill="#74B943"></path>
          <path d="M14.4600379,50.2776579 C15.4493192,50.797373 13.0869898,57.421802 10.8401196,56.2982206 C8.59324949,55.1753444 12.6188036,49.3108608 14.4600379,50.2776579" id="Fill-75" fill="#74B943"></path>
          <path d="M27.3808227,56.6678742 C27.1724787,57.7613681 28.6602807,58.9448895 33.122981,59.2883105 C37.5854461,59.6312614 39.5513105,59.7563127 39.707451,58.539648 C39.9628252,56.5475241 35.1513956,56.8552161 32.2804341,56.3249233 C29.4092374,55.7941604 27.6303182,55.3581262 27.3808227,56.6678742" id="Fill-77" fill="#74B943"></path>
          <path d="M12.6295971,33.8471841 C14.1275105,33.6600772 14.5877015,36.9504313 17.6764131,37.0381082 C18.7686906,37.069371 19.8957705,35.6578425 21.0553013,35.8122762 C22.4596245,35.9996181 22.7874254,41.5427763 22.4109482,45.5667491 C22.2693872,47.0786477 21.4294269,47.7596133 21.2424817,49.1636199 C21.044014,50.6569489 22.7530933,53.4614362 20.5603079,54.0417966 C18.8620456,54.4912291 18.5899757,50.4428102 19.0268867,48.6333271 C19.4637977,46.824079 18.9958467,45.8570468 18.9332965,44.4532752 C18.8709814,43.0495037 18.9643364,40.5226209 17.6851137,40.17967 C16.4056558,39.836484 13.472144,41.4898881 11.7557751,39.337454 C9.8929069,37.001204 11.7268515,33.9597773 12.6295971,33.8471841" id="Fill-79" fill="#74B943"></path>
          <path d="M42.8589009,15.4052881 C43.4481899,15.0588113 44.9886657,16.2174164 48.1973044,15.7517648 C50.3463517,15.4398417 51.0050103,14.6777809 51.5942993,14.2619617 C52.1835883,13.8461426 53.019551,13.2914037 52.980751,12.6332388 C52.9116166,11.4551238 51.4555601,11.5590198 50.7969014,11.3164391 C50.138478,11.0740934 49.1677736,10.5889319 48.3358085,10.6582742 C47.5038434,10.7276166 42.6714854,12.2651366 40.987097,12.4947892 C39.461906,12.7025812 38.4620429,11.2130132 36.2379825,11.0740934 C35.128774,11.004751 34.7127915,11.4551238 34.0541329,11.5938085 C33.3954742,11.7324932 32.771618,11.6977045 32.6676811,12.1480773 C32.5637443,12.5986852 33.1530333,13.152954 33.4996462,13.4996658 C33.8462592,13.8461426 34.6779891,15.4746304 36.4458562,15.7172112 C38.2139584,15.9597919 39.7737166,15.5091841 40.1203295,16.0982416 C40.4671776,16.6875342 40.3630056,17.5882798 40.397808,17.8308605 C40.4323752,18.0734413 41.0218994,20.6722521 40.5365472,21.330652 C40.051195,21.9888168 38.7336426,22.5670616 38.179156,24.1372549 C37.5552997,25.9044274 38.9676181,27.4652183 37.650536,27.7769064 C36.8486702,27.9668339 35.7526303,27.0132001 35.0594044,26.3550353 C34.3661786,25.6966354 34.1235025,25.2112388 33.9847632,24.449178 C33.8462592,23.6868821 33.628274,19.6083757 32.425005,19.6083757 C32.0090225,19.6083757 31.6565308,20.3187236 31.6624096,21.2958633 C31.6680532,22.253023 33.0723764,25.2457925 31.3578887,26.1531197 C30.5334484,26.589389 28.7853341,25.5579507 25.838889,23.8946741 C22.8922088,22.2313976 22.2631792,21.9408648 21.9774704,21.7083916 C21.365842,21.2114771 21.6202757,20.3598589 21.0251079,20.4393088 C20.0198363,20.5730573 20.1884398,22.3007399 21.6096939,23.1323782 C23.030948,23.9640165 25.1802304,25.0727892 26.1161323,25.6618467 C27.0520343,26.2509042 30.657138,28.3993422 32.4595723,28.745819 C34.2622417,29.0922958 34.7831017,29.292801 35.3368829,29.3694302 C36.1864843,29.4869596 36.7553152,29.0405828 37.3819933,29.1268494 C38.5241229,29.2843389 39.6004101,30.0971724 40.7096185,30.0623837 C41.8190621,30.0278301 47.4582241,29.1630485 47.5384106,30.9288107 C47.573213,31.6911066 46.6815195,31.9118269 45.4683742,31.7037998 C44.255229,31.4960078 43.4829923,32.1069258 42.2696119,32.0375834 C41.0564666,31.968241 40.2487221,31.6029595 39.6697797,31.9336874 C39.1846627,32.2108218 38.872617,32.834668 38.3524625,33.0424601 C37.8325431,33.2504871 34.7906266,33.0763085 33.1182309,33.2504871 C32.4854389,33.3163036 30.3204014,33.1383641 30.067849,34.1166791 C29.7906057,35.190663 31.8662857,36.4289532 32.425005,36.9580707 C33.3505603,37.8346052 47.2091989,51.5742661 45.216057,56.9089271 C44.1414158,59.7846373 37.8673454,58.5771399 36.8966411,58.5428213 C35.9261719,58.5080326 34.3346683,58.0966796 33.1182309,58.1270021 C32.5971358,58.1396953 29.131947,58.7503783 28.5772252,58.0576598 C28.0227386,57.3642361 26.9274041,53.4836493 28.0918731,52.6172223 C29.0792731,51.8826633 30.4144619,51.9590575 31.3503639,52.2361919 C32.2862658,52.5135613 34.9900348,53.5527566 35.3714501,52.7213534 C35.7526303,51.8897151 33.5342135,51.1274192 32.7370507,50.2264386 C31.9396529,49.3254579 31.4197335,48.0904586 31.1076878,47.6997908 C30.4546728,46.8813158 29.4893769,46.2494776 28.8086141,44.1193741 C28.1325542,42.0038443 28.0874052,40.7914107 28.191342,39.682638 C28.2952789,38.5738653 28.6465949,37.0624368 28.6120276,35.6415059 C28.5772252,34.2210452 28.5779307,29.6818234 25.3888095,27.9146509 C22.1996883,26.1474783 20.4071304,29.5875648 15.7520764,28.8506553 C12.9095681,28.4005175 12.2426792,23.9529687 12.1716635,22.3470465 C11.9012396,16.2242331 17.3645085,10.8084768 18.621627,10.146081 C19.5137908,9.67619828 20.2065464,9.72556064 21.1960628,10.3684466 C21.9316159,10.8463213 22.654706,12.0251415 23.5214735,12.1983799 C24.3880058,12.3718534 26.0218367,11.7261467 26.9283447,11.9861218 C29.5615683,12.7411308 30.8440832,16.435081 31.8493548,15.8808121 C32.8546264,15.3263083 30.7025222,12.0065719 28.5793416,10.5915175 C27.7398517,10.0320774 27.5070519,9.56431026 27.9263266,8.72632539 C28.1595966,8.26020366 28.5283138,8.13280175 28.8688128,8.23904836 C30.1840137,8.65016632 31.5939805,7.33571713 32.3911433,6.19215574 C33.188306,5.04859435 33.6487321,4.61256016 33.7079902,3.71087434 C33.7914689,2.43850069 32.3671578,0.303225939 31.579166,0.613738703 C30.9762382,0.851148159 33.0867206,1.66633231 32.7081271,3.58981902 C32.4642753,4.82787408 31.1777628,6.81365139 30.2070585,6.57107064 C29.2363542,6.32825483 28.8215474,4.08955418 28.8897412,3.19609542 C28.9591109,2.28947337 30.2072937,0.853498748 30.2418609,0.541810689 C30.2712548,0.276899346 30.0137642,0 29.2636317,0 L0,0 L0,59.9661027 L3.34784826,59.9661027 C6.12733597,59.9661027 8.66414759,59.931079 9.44343881,58.9816762 C10.0148563,58.2856669 9.75454391,57.3313279 10.4477698,56.1880015 C11.1409956,55.0444402 11.5861369,54.736513 11.9729607,54.2130369 C12.5733019,53.4009086 12.6316194,51.9259142 12.700989,51.0251686 C12.7703586,50.124423 12.700989,48.5302538 13.7062606,48.287673 C14.1763279,48.1741396 14.7063588,48.5417716 15.2660188,48.8076232 C15.9030435,49.110144 16.3747569,49.3205217 16.7566425,49.6738152 C17.612593,50.4654934 17.494312,51.7879346 17.519238,52.4110757 C17.5801422,53.9330818 15.5086948,58.6829164 17.8312837,58.9946044 C20.1536374,59.3067626 20.7676173,56.5375341 20.9061214,52.2505305 C20.9456268,51.0209375 20.1124859,50.2671037 19.9537588,49.4737801 C19.7400063,48.4068479 20.1616325,47.6377352 19.9537588,46.7369897 C19.7458851,45.836009 19.3564747,44.5803246 19.4604115,42.5009938 C19.5645835,40.4221332 20.0920277,37.7086136 18.5593119,37.4766105 C17.4153011,37.3036072 17.7941298,38.9052983 16.9647514,40.5262643 C16.0335524,42.345855 14.2374672,44.2693417 12.1462672,43.4713168 C8.33328979,42.0160674 9.40181704,37.4394712 9.53232598,36.9317441 C9.68917186,36.3212962 10.7022034,34.1415953 10.8983196,33.665131 C11.3486342,32.5721073 11.4878437,30.3736017 12.7355562,29.9229938 C13.9835039,29.472621 14.8895416,30.3301158 16.1327862,30.442944 C17.9034751,30.6034892 18.8593649,30.3120162 19.7258973,30.1039891 C20.5926647,29.8959621 23.5028965,28.4012227 24.8333823,29.1606979 C26.4864955,30.1039891 27.3852436,32.1428898 27.3095249,36.3036668 C27.280131,37.9196965 26.5934893,39.5714552 26.4625101,40.8031636 C26.3101321,42.2389032 26.4397004,44.1236052 26.9861919,45.7647862 C27.2808364,46.6500179 28.4039188,49.4634375 28.0225035,50.2257334 C27.6413233,50.9877942 26.6995426,50.6507198 26.3588084,51.6118755 C26.0942633,52.3579524 25.8104357,54.36512 26.3588084,56.3588893 C26.6028954,57.2467067 27.1926547,57.679215 27.3306885,58.0360344 C27.4938835,58.457965 27.3492654,59.1438668 27.8527243,59.5056224 C28.7806311,60.1713091 29.6516313,59.823657 30.3796595,59.823657 C31.1076878,59.823657 32.425005,59.6506537 33.360907,59.6849723 C34.2968089,59.7199961 37.1393172,60.0316841 38.283328,59.9973656 C39.4271036,59.9623418 44.4532263,59.9917241 45.701174,59.8880632 C46.9493568,59.783697 52.1487859,60.1304089 52.0794163,59.0561898 C52.0102819,57.9822059 48.0585652,58.7788204 47.3999066,57.6007053 C46.7412479,56.4228254 47.5400567,54.1676706 45.9786524,51.2651637 C44.6714467,48.8351251 40.2938711,41.9815137 37.7979758,39.8330757 C35.3020805,37.6848727 34.5919238,36.5826817 34.8167283,36.2293882 C35.3020805,35.4670923 36.7609588,36.5873828 38.1100215,36.2293882 C39.808519,35.7787803 39.9787685,34.2739335 40.7096185,33.7692621 C41.4604564,33.2507222 44.7307048,33.2504871 45.8399132,33.2156984 C46.9493568,33.1809097 48.1006573,33.4060961 48.7619026,32.0211293 C49.5950434,30.2760522 47.9891956,29.5421985 46.9493568,28.7105602 C45.9092828,27.8789219 45.4545003,26.5538951 45.9440852,24.3793655 C46.2558958,22.9934584 43.690866,22.0231354 43.4827571,21.4340779 C43.2748834,20.8452554 43.2400811,19.2170026 43.101577,18.4892604 C42.9628377,17.7615181 42.2696119,15.7517648 42.8589009,15.4052881 M43.6694672,13.8656525 C43.9088512,12.8370349 47.667979,11.9945839 48.2285796,11.9673171 C49.0313859,11.9280622 50.8225329,12.4950242 50.9177692,12.8118836 C51.1957179,13.7377804 49.0737131,14.1942648 48.3823685,14.3477582 C46.0080464,14.8754654 43.5650601,14.3143798 43.6694672,13.8656525 M36.013413,14.0022217 C35.4372925,13.8870428 34.8987961,13.2740093 35.1682795,12.8118836 C35.9750834,11.4295024 39.2401584,13.5031917 39.2018287,13.8872779 C39.1634991,14.271129 36.5895336,14.1174005 36.013413,14.0022217 M44.5411729,23.7552842 C44.9305834,24.1036414 44.3876191,25.5217516 44.3107247,26.174275 C44.2338302,26.8270335 44.4259488,27.7103847 44.003382,27.8255635 C43.5808152,27.9407424 43.6191449,27.1342554 43.3886966,26.4431823 C43.1582484,25.7521093 42.1978907,24.7535792 42.3131149,24.2928638 C42.428339,23.8321484 43.8112634,23.1027608 44.5411729,23.7552842" id="Fill-81" fill="#0B1015"></path>
          <path d="M43.6694672,13.8656525 C43.9088512,12.8370349 47.667979,11.9945839 48.2285796,11.9673171 C49.0313859,11.9280622 50.8225329,12.4950242 50.9177692,12.8118836 C51.1957179,13.7377804 49.0737131,14.1942648 48.3823685,14.3477582 C46.0080464,14.8754654 43.5650601,14.3143798 43.6694672,13.8656525 Z M36.013413,14.0022217 C35.4372925,13.8870428 34.8987961,13.2740093 35.1682795,12.8118836 C35.9750834,11.4295024 39.2401584,13.5031917 39.2018287,13.8872779 C39.1634991,14.271129 36.5895336,14.1174005 36.013413,14.0022217 Z M44.5411729,23.7552842 C44.9305834,24.1036414 44.3876191,25.5217516 44.3107247,26.174275 C44.2338302,26.8270335 44.4259488,27.7103847 44.003382,27.8255635 C43.5808152,27.9407424 43.6191449,27.1342554 43.3886966,26.4431823 C43.1582484,25.7521093 42.1978907,24.7535792 42.3131149,24.2928638 C42.428339,23.8321484 43.8112634,23.1027608 44.5411729,23.7552842 Z" id="Stroke-83" stroke="#1A1919" stroke-width="0.5"></path>
        </g>
      </g>
    </g>
  </g>
</svg>
